<svg width="152" height="40" viewBox="0 0 152 40" fill="none" xmlns="http://www.w3.org/2000/svg">
<g clip-path="url(#clip0_172440_2685)">
<g clip-path="url(#clip1_172440_2685)">
<path d="M106.272 6.81582C106.272 8.92193 104.824 10.2908 102.598 10.2908H100.16V3.32166H102.598C104.824 3.32166 106.272 4.70011 106.272 6.81582ZM102.55 9.10204C104.017 9.10204 104.845 8.26392 104.845 6.81582C104.845 5.36772 104.017 4.50079 102.55 4.50079H101.56V9.10204H102.55Z" fill="white"/>
<path d="M106.67 3.12237C106.67 2.66369 107.03 2.30347 107.53 2.30347C108.029 2.30347 108.389 2.66369 108.389 3.12237C108.389 3.58106 108.02 3.94128 107.53 3.94128C107.04 3.94128 106.67 3.58106 106.67 3.12237ZM106.699 11.9574C106.699 11.5084 107.047 11.1578 107.527 11.1578C108.008 11.1578 108.365 11.506 108.365 11.9574C108.365 12.4089 108.005 12.7451 107.527 12.7451C107.049 12.7451 106.699 12.3969 106.699 11.9574ZM106.819 4.76019H108.216V10.2908H106.819V4.76019Z" fill="white"/>
<path d="M111.472 4.67139C112.85 4.67139 113.777 5.38943 114.077 6.6286H112.569C112.408 6.16031 112.041 5.86012 111.46 5.86012C110.682 5.86012 110.163 6.44849 110.163 7.52676C110.163 8.60502 110.682 9.18378 111.46 9.18378C112.038 9.18378 112.399 8.92442 112.569 8.42491H114.077C113.777 9.60404 112.85 10.3821 111.472 10.3821C109.875 10.3821 108.736 9.26303 108.736 7.52676C108.736 5.79048 109.875 4.67139 111.472 4.67139Z" fill="white"/>
<path d="M114.604 2.90381H116.001V5.44939C116.361 4.9811 116.981 4.68091 117.718 4.68091C118.965 4.68091 119.875 5.51903 119.875 7.04638V10.2908H118.477V7.23609C118.477 6.34754 117.987 5.86724 117.25 5.86724C116.513 5.86724 116.001 6.34514 116.001 7.23609V10.2908H114.604V2.90381Z" fill="white"/>
<path d="M123.485 4.76013L124.883 9.00356L126.28 4.76013H127.767L125.721 10.2908H124.023L121.986 4.76013H123.485Z" fill="white"/>
<path d="M133.277 10.2908H131.87V9.59193C131.522 10.0602 130.912 10.3604 130.222 10.3604C128.935 10.3604 128.006 9.52228 128.006 8.00454V4.76013H129.404V7.80522C129.404 8.69377 129.893 9.17407 130.631 9.17407C131.368 9.17407 131.867 8.69377 131.867 7.80522V4.76013H133.275V10.2908H133.277ZM129.814 11.9574C129.814 11.5083 130.165 11.1577 130.643 11.1577C131.121 11.1577 131.481 11.5059 131.481 11.9574C131.481 12.4089 131.121 12.7451 130.643 12.7451C130.165 12.7451 129.814 12.3969 129.814 11.9574Z" fill="white"/>
<path d="M102.54 17.1447C103.918 17.1447 104.845 17.8627 105.146 19.1019H103.637C103.479 18.6336 103.109 18.3334 102.53 18.3334C101.752 18.3334 101.234 18.9218 101.234 20C101.234 21.0783 101.752 21.6571 102.53 21.6571C103.109 21.6571 103.469 21.3977 103.637 20.8982H105.146C104.845 22.0773 103.918 22.8554 102.54 22.8554C100.943 22.8554 99.8047 21.7363 99.8047 20C99.8047 18.2637 100.943 17.1447 102.54 17.1447Z" fill="white"/>
<path d="M105.672 15.3772H107.07V17.9228C107.43 17.4545 108.047 17.1543 108.787 17.1543C110.035 17.1543 110.943 17.9924 110.943 19.5198V22.7642H109.545V19.7095C109.545 18.8209 109.056 18.3406 108.318 18.3406C107.581 18.3406 107.07 18.8185 107.07 19.7095V22.7642H105.672V15.3772Z" fill="white"/>
<path d="M114.225 22.8554C112.628 22.8554 111.42 21.7363 111.42 20C111.42 18.2637 112.669 17.1447 114.266 17.1447C115.863 17.1447 117.111 18.2517 117.111 20C117.111 21.7483 115.834 22.8554 114.227 22.8554H114.225ZM114.225 21.6378C114.965 21.6378 115.673 21.0999 115.673 20C115.673 18.9001 114.984 18.3622 114.246 18.3622C113.509 18.3622 112.839 18.8905 112.839 20C112.839 21.1095 113.478 21.6378 114.227 21.6378H114.225Z" fill="white"/>
<path d="M119.732 18.3838H119.074V17.2359H119.732V15.8671H121.139V17.2359H122.376V18.3838H121.139V21.0591C121.139 21.4289 121.288 21.5874 121.728 21.5874H122.376V22.7665H121.497C120.438 22.7665 119.73 22.3175 119.73 21.0495V18.3838H119.732Z" fill="white"/>
<path d="M122.885 15.3772H124.282V17.9228C124.643 17.4545 125.262 17.1543 125.999 17.1543C127.246 17.1543 128.156 17.9924 128.156 19.5198V22.7642H126.758V19.7095C126.758 18.8209 126.268 18.3406 125.531 18.3406C124.794 18.3406 124.282 18.8185 124.282 19.7095V22.7642H122.885V15.3772Z" fill="white"/>
<path d="M134.203 22.7666H132.796V22.0678C132.447 22.536 131.837 22.8362 131.148 22.8362C129.861 22.8362 128.932 21.9981 128.932 20.4804V17.236H130.329V20.281C130.329 21.1696 130.819 21.6499 131.556 21.6499C132.294 21.6499 132.793 21.1696 132.793 20.281V17.236H134.201V22.7666H134.203Z" fill="white"/>
<path d="M137.497 22.8554C135.89 22.8554 134.721 21.7363 134.721 20C134.721 18.2638 135.859 17.1447 137.497 17.1447C139.135 17.1447 140.223 18.2325 140.223 19.88C140.223 20.0601 140.213 20.2402 140.182 20.4179H136.138C136.207 21.2368 136.767 21.6955 137.466 21.6955C138.064 21.6955 138.395 21.3953 138.573 21.0279H140.081C139.781 22.0461 138.863 22.8554 137.494 22.8554H137.497ZM136.32 16.686L135.77 15.9175L137.478 14.8104L139.185 15.9175L138.647 16.686L137.48 15.9583L136.323 16.686H136.32ZM136.15 19.4813H138.774C138.755 18.7537 138.176 18.2926 137.456 18.2926C136.786 18.2926 136.258 18.7224 136.147 19.4813H136.15Z" fill="white"/>
<path d="M144.532 21.0495L143.524 22.7666H142.025L143.833 19.9905L142.006 17.236H143.584L144.712 18.9434L145.731 17.236H147.229L145.411 19.9905L147.248 22.7666H145.671L144.532 21.0495Z" fill="white"/>
<path d="M149.622 22.8554C148.015 22.8554 146.846 21.7363 146.846 20C146.846 18.2637 147.984 17.1447 149.622 17.1447C151.26 17.1447 152.348 18.2325 152.348 19.8799C152.348 20.0601 152.338 20.2402 152.309 20.4179H148.265C148.335 21.2368 148.894 21.6955 149.593 21.6955C150.191 21.6955 150.522 21.3953 150.7 21.0279H152.208C151.908 22.0461 150.991 22.8554 149.622 22.8554ZM148.275 19.4813H150.899C150.88 18.7536 150.299 18.2926 149.581 18.2926C148.913 18.2926 148.383 18.7224 148.272 19.4813H148.275Z" fill="white"/>
<path d="M100.162 27.8529H101.56V35.2399H100.162V27.8529Z" fill="white"/>
<path d="M102.287 28.0715C102.287 27.6128 102.647 27.2526 103.144 27.2526C103.642 27.2526 104.004 27.6128 104.004 28.0715C104.004 28.5302 103.634 28.8904 103.144 28.8904C102.655 28.8904 102.287 28.5302 102.287 28.0715ZM102.438 29.7093H103.836V35.2399H102.438V29.7093Z" fill="white"/>
<path d="M108.586 32.1852C108.586 31.2966 108.097 30.8163 107.359 30.8163C106.622 30.8163 106.111 31.2942 106.111 32.1852V35.2399H104.713V29.7093H106.111V30.3985C106.471 29.9302 107.069 29.63 107.777 29.63C109.064 29.63 109.984 30.4681 109.984 31.9955V35.2399H108.586V32.1852Z" fill="white"/>
<path d="M110.811 27.8529H112.208V30.3985C112.568 29.9302 113.188 29.63 113.925 29.63C115.172 29.63 116.082 30.4681 116.082 31.9955V35.2399H114.684V32.1852C114.684 31.2966 114.194 30.8163 113.457 30.8163C112.72 30.8163 112.208 31.2942 112.208 32.1852V35.2399H110.811V27.8529Z" fill="white"/>
<path d="M118.783 27.8529H120.181V30.3985C120.541 29.9302 121.158 29.63 121.898 29.63C123.147 29.63 124.054 30.4681 124.054 31.9955V35.2399H122.657V32.1852C122.657 31.2966 122.167 30.8163 121.43 30.8163C120.692 30.8163 120.181 31.2942 120.181 32.1852V35.2399H118.783V27.8529Z" fill="white"/>
<path d="M127.338 35.3288C125.741 35.3288 124.533 34.2097 124.533 32.4734C124.533 30.7371 125.78 29.618 127.379 29.618C128.978 29.618 130.225 30.7251 130.225 32.4734C130.225 34.2217 128.947 35.3288 127.341 35.3288H127.338ZM127.338 34.1112C128.078 34.1112 128.786 33.5733 128.786 32.4734C128.786 31.3735 128.097 30.8356 127.357 30.8356C126.618 30.8356 125.95 31.3639 125.95 32.4734C125.95 33.5829 126.589 34.1112 127.338 34.1112Z" fill="white"/>
<path d="M132.917 29.618C133.806 29.618 134.416 30.0383 134.745 30.497V29.7093H136.152V35.2399H134.745V34.4306C134.416 34.9085 133.786 35.3288 132.907 35.3288C131.51 35.3288 130.391 34.1809 130.391 32.4542C130.391 30.7275 131.507 29.618 132.917 29.618ZM133.277 30.8476C132.528 30.8476 131.82 31.4072 131.82 32.4542C131.82 33.5012 132.528 34.1016 133.277 34.1016C134.026 34.1016 134.745 33.5229 134.745 32.4734C134.745 31.424 134.046 30.8452 133.277 30.8452V30.8476ZM132.478 36.9066C132.478 36.4575 132.828 36.1069 133.306 36.1069C133.784 36.1069 134.144 36.4551 134.144 36.9066C134.144 37.358 133.784 37.6942 133.306 37.6942C132.828 37.6942 132.478 37.346 132.478 36.9066Z" fill="white"/>
<path d="M137.236 30.8572H136.578V29.7093H137.236V28.3405H138.643V29.7093H139.883V30.8572H138.643V33.5325C138.643 33.9023 138.792 34.0608 139.232 34.0608H139.88V35.2399H139.001C137.942 35.2399 137.234 34.7908 137.234 33.5229V30.8572H137.236Z" fill="white"/>
<path d="M84.9642 3.51868H84.3398V35.2375H84.9642V3.51868Z" fill="white"/>
<path d="M30.3015 3.97491V7.95177C30.3015 8.67462 29.7156 9.26299 28.9903 9.26299H8.86827C7.90047 9.26299 6.99751 9.63522 6.32029 10.3124C5.63347 11.0017 5.25403 11.9118 5.25403 12.8748V27.5935C5.25403 28.4221 4.58402 29.0921 3.75551 29.0921H0.150872C-0.677641 29.0921 -1.34766 28.4221 -1.34766 27.5935V11.4916C-1.34766 10.6631 -0.677641 9.99304 0.150872 9.99304H2.36985C3.33525 9.99304 4.24541 9.6136 4.93223 8.92678C5.60945 8.24956 5.98168 7.3442 5.98168 6.3788V4.1214C5.98168 3.3169 6.6445 2.6637 7.4562 2.6637H28.9879C29.7108 2.6637 30.2992 3.24966 30.2992 3.97491H30.3015Z" fill="white"/>
<path d="M39.7954 37.2596C38.9669 37.2596 38.2969 36.5896 38.2969 35.7611V22.6081C38.2969 21.8036 38.9597 21.148 39.7714 21.148H42.0144C42.9798 21.148 43.8851 20.7758 44.5624 20.0962C45.2444 19.4142 45.6238 18.5136 45.6286 17.5554C45.6406 15.4997 47.2712 13.8163 49.3269 13.8163H63.2267C64.0552 13.8163 64.7252 14.4863 64.7252 15.3148V18.917C64.7252 19.7456 64.0552 20.4156 63.2267 20.4156H48.5104C47.5522 20.4156 46.642 20.7878 45.9504 21.4626C45.2684 22.1615 44.8962 23.0692 44.8962 24.0298V35.7611C44.8962 36.5896 44.2261 37.2596 43.3976 37.2596H39.7954Z" fill="white"/>
<path d="M40.3438 16.6932C38.0383 17.1135 36.0499 15.1491 36.4245 12.8508C36.6479 11.4772 37.7261 10.3965 39.0926 10.1324C39.4408 10.0651 39.7674 10.0579 40.0844 10.0915C40.2285 10.1084 40.375 10.1156 40.5191 10.1156C41.3164 10.1156 42.0272 9.8634 42.5771 9.3855L42.7428 9.24141C43.4057 8.66265 43.7875 7.82454 43.7875 6.94319V4.15746C43.7875 3.32895 44.4575 2.65894 45.286 2.65894H66.5272C67.3557 2.65894 68.0257 3.32895 68.0257 4.15746V7.83894C68.0257 8.66746 67.3557 9.33747 66.5272 9.33747H46.1818C45.2956 9.33747 44.4551 9.72171 43.8739 10.3917L43.7395 10.5478C43.1751 11.1986 42.923 12.0848 43.0334 13.043C43.055 13.2375 43.0598 13.4368 43.0454 13.6409C42.9374 15.1323 41.8111 16.4219 40.339 16.6884L40.3438 16.6932Z" fill="#07F668"/>
<path d="M7.52587 37.2596C6.69736 37.2596 6.02734 36.5896 6.02734 35.7611V32.0796C6.02734 31.2511 6.69736 30.5811 7.52587 30.5811H23.2652C24.1514 30.5811 24.9919 30.1968 25.5731 29.5292L25.7099 29.3707C26.3439 28.6407 26.38 27.7737 26.4208 26.8539C26.4304 26.621 26.428 26.2512 26.4136 26.0278C26.3631 25.1993 26.3103 24.342 25.7099 23.6504L25.5731 23.4919C24.9943 22.8243 24.1562 22.44 23.2724 22.44H15.117C14.2885 22.44 13.6184 21.77 13.6184 20.9415V17.26C13.6184 16.4315 14.2885 15.7615 15.117 15.7615H24.1634C24.9919 15.7615 25.6619 16.4315 25.6619 17.26V20.0529C25.6619 20.9319 26.0437 21.7676 26.709 22.344L26.8723 22.4856C27.4246 22.9683 28.1306 23.2325 28.8559 23.2325C28.9952 23.2325 29.1369 23.2229 29.2737 23.2037C29.5307 23.1677 29.7733 23.1605 30.0326 23.1845C30.6426 23.2373 31.2334 23.4534 31.7209 23.8233C32.7607 24.6134 33.241 25.8429 33.0201 27.1181C32.7415 28.7247 31.3054 29.8726 29.6748 29.851C29.5499 29.8486 29.4274 29.839 29.305 29.8222C29.1633 29.803 29.0216 29.7934 28.8799 29.7934C28.133 29.7934 27.4222 30.0575 26.8723 30.5354L26.709 30.6771C26.0437 31.2559 25.6619 32.0916 25.6619 32.9729V34.0368C25.6619 35.8163 24.2186 37.2596 22.4391 37.2596H7.52827H7.52587Z" fill="white"/>
</g>
</g>
<defs>
<clipPath id="clip0_172440_2685">
<rect width="151.818" height="40" fill="white"/>
</clipPath>
<clipPath id="clip1_172440_2685">
<rect width="153.695" height="38.9041" fill="white" transform="translate(-1.34766 0.547974)"/>
</clipPath>
</defs>
</svg>
